<?xml version="1.0" encoding="utf-8"?>
<!DOCTYPE svg PUBLIC "-//W3C//DTD SVG 1.1//EN" "http://www.w3.org/Graphics/SVG/1.1/DTD/svg11.dtd">
<svg version="1.1" id="Layer_1"
	 xmlns="http://www.w3.org/2000/svg" xmlns:xlink="http://www.w3.org/1999/xlink" x="0px" y="0px" width="24px" height="192px"
	 viewBox="0 0 24 192" style="enable-background:new 0 0 24 192;" xml:space="preserve">

	<g>
		<g>
			<path style="fill:#FFFFFF;" d="M4,23c-1.654,0-3-1.346-3-3V4c0-1.654,1.346-3,3-3h16c1.654,0,3,1.346,3,3v16c0,1.654-1.346,3-3,3
				H4z"/>
			<path style="fill:#D0D0D0;" d="M20,2c1.103,0,2,0.897,2,2v16c0,1.103-0.897,2-2,2H4c-1.104,0-2-0.897-2-2V4c0-1.103,0.896-2,2-2
				H20 M20,0H4C1.791,0,0,1.791,0,4v16c0,2.209,1.791,4,4,4h16c2.209,0,4-1.791,4-4V4C24,1.791,22.209,0,20,0L20,0z"/>
		</g>
		<g>
			<path style="fill:#FFFFFF;" d="M4,47c-1.654,0-3-1.346-3-3V28c0-1.654,1.346-3,3-3h16c1.654,0,3,1.346,3,3v16
				c0,1.654-1.346,3-3,3H4z"/>
			<path style="fill:#B7B7B7;" d="M20,26c1.103,0,2,0.897,2,2v16c0,1.103-0.897,2-2,2H4c-1.103,0-2-0.897-2-2V28
				c0-1.103,0.897-2,2-2H20 M20,24H4c-2.209,0-4,1.791-4,4v16c0,2.209,1.791,4,4,4h16c2.209,0,4-1.791,4-4V28
				C24,25.791,22.209,24,20,24L20,24z"/>
		</g>
		<g>
			<path style="fill:#B3E2ED;" d="M4,95c-1.654,0-3-1.346-3-3V76c0-1.654,1.346-3,3-3h16c1.654,0,3,1.346,3,3v16
				c0,1.654-1.346,3-3,3H4z"/>
			<path style="fill:#48BDD1;" d="M20,74c1.103,0,2,0.897,2,2v16c0,1.103-0.897,2-2,2H4c-1.103,0-2-0.897-2-2V76
				c0-1.103,0.897-2,2-2H20 M20,72H4c-2.209,0-4,1.791-4,4v16c0,2.209,1.791,4,4,4h16c2.209,0,4-1.791,4-4V76
				C24,73.791,22.209,72,20,72L20,72z"/>
		</g>
		<g>
			<path style="fill:#EAEAEA;" d="M4,71c-1.654,0-3-1.346-3-3V52c0-1.654,1.346-3,3-3h16c1.654,0,3,1.346,3,3v16
				c0,1.654-1.346,3-3,3H4z"/>
			<path style="fill:#D0D0D0;" d="M20,50c1.103,0,2,0.897,2,2v16c0,1.103-0.897,2-2,2H4c-1.104,0-2-0.897-2-2V52
				c0-1.103,0.896-2,2-2H20 M20,48H4c-2.209,0-4,1.791-4,4v16c0,2.209,1.791,4,4,4h16c2.209,0,4-1.791,4-4V52
				C24,49.791,22.209,48,20,48L20,48z"/>
		</g>
		<g>
			<polygon style="fill:#231F20;" points="9.274,90.494 3.89,84.571 6.11,82.554 9.476,86.256 17.991,78.515 20.009,80.735			"/>
		</g>
		<g>
			<path style="fill:#FFFFFF;" d="M12,119c-6.065,0-11-4.935-11-11s4.935-11,11-11s11,4.935,11,11S18.065,119,12,119z"/>
			<g>
				<path style="fill:#D0D0D0;" d="M12,98c5.514,0,10,4.486,10,10s-4.486,10-10,10s-10-4.486-10-10S6.486,98,12,98 M12,96
					c-6.627,0-12,5.373-12,12s5.373,12,12,12s12-5.373,12-12S18.627,96,12,96L12,96z"/>
			</g>
		</g>
		<g>
			<path style="fill:#FFFFFF;" d="M12,143c-6.065,0-11-4.935-11-11s4.935-11,11-11s11,4.935,11,11S18.065,143,12,143z"/>
			<g>
				<path style="fill:#B7B7B7;" d="M12,122c5.514,0,10,4.486,10,10s-4.486,10-10,10s-10-4.486-10-10S6.486,122,12,122 M12,120
					c-6.627,0-12,5.373-12,12s5.373,12,12,12s12-5.373,12-12S18.627,120,12,120L12,120z"/>
			</g>
		</g>
		<g>
			<path style="fill:#B3E2ED;" d="M12,191c-6.065,0-11-4.935-11-11s4.935-11,11-11s11,4.935,11,11S18.065,191,12,191z"/>
			<path style="fill:#48BDD1;" d="M12,170c5.514,0,10,4.486,10,10s-4.486,10-10,10s-10-4.486-10-10S6.486,170,12,170 M12,168
				c-6.627,0-12,5.373-12,12s5.373,12,12,12s12-5.373,12-12S18.627,168,12,168L12,168z"/>
		</g>
		<g>
			<path style="fill:#EAEAEA;" d="M12,167c-6.065,0-11-4.935-11-11s4.935-11,11-11s11,4.935,11,11S18.065,167,12,167z"/>
			<path style="fill:#D0D0D0;" d="M12,146c5.514,0,10,4.486,10,10s-4.486,10-10,10s-10-4.486-10-10S6.486,146,12,146 M12,144
				c-6.627,0-12,5.373-12,12s5.373,12,12,12s12-5.373,12-12S18.627,144,12,144L12,144z"/>
		</g>
		<circle style="fill:#231F20;" cx="12" cy="180" r="5"/>
	</g>
</svg>
